<svg width="134" height="52" viewBox="0 0 134 52" fill="none" xmlns="http://www.w3.org/2000/svg">
<path d="M72.96 32V20.8H77.04C77.632 20.8 78.1653 20.9227 78.64 21.168C79.12 21.408 79.4987 21.7547 79.776 22.208C80.0587 22.656 80.2 23.1867 80.2 23.8C80.2 24.072 80.16 24.3467 80.08 24.624C80 24.9013 79.8773 25.152 79.712 25.376C79.5467 25.5947 79.3333 25.7573 79.072 25.864C79.4187 25.9493 79.7013 26.104 79.92 26.328C80.1387 26.552 80.3093 26.816 80.432 27.12C80.5547 27.4187 80.6373 27.7253 80.68 28.04C80.728 28.3493 80.752 28.6373 80.752 28.904C80.752 29.496 80.6053 30.024 80.312 30.488C80.0187 30.952 79.624 31.32 79.128 31.592C78.6373 31.864 78.0933 32 77.496 32H72.96ZM74.912 30.328H77.296C77.616 30.328 77.904 30.2507 78.16 30.096C78.416 29.9413 78.6213 29.728 78.776 29.456C78.9307 29.184 79.008 28.8747 79.008 28.528C79.008 28.2293 78.9307 27.9467 78.776 27.68C78.6213 27.4133 78.416 27.1973 78.16 27.032C77.904 26.8667 77.616 26.784 77.296 26.784H74.912V30.328ZM74.912 25.136H76.816C77.2107 25.136 77.5467 25.0133 77.824 24.768C78.1067 24.5227 78.248 24.1973 78.248 23.792C78.248 23.36 78.1067 23.0347 77.824 22.816C77.5467 22.592 77.2107 22.48 76.816 22.48H74.912V25.136ZM85.4488 32.208C84.7128 32.208 84.0408 32.0187 83.4328 31.64C82.8301 31.2613 82.3474 30.752 81.9848 30.112C81.6274 29.472 81.4488 28.7653 81.4488 27.992C81.4488 27.4107 81.5528 26.8667 81.7608 26.36C81.9688 25.848 82.2541 25.4 82.6168 25.016C82.9848 24.6267 83.4114 24.3227 83.8968 24.104C84.3821 23.8853 84.8994 23.776 85.4488 23.776C86.0728 23.776 86.6434 23.9093 87.1608 24.176C87.6834 24.4373 88.1261 24.7973 88.4888 25.256C88.8514 25.7147 89.1154 26.2373 89.2808 26.824C89.4461 27.4107 89.4834 28.024 89.3928 28.664H83.5448C83.6194 28.9627 83.7421 29.232 83.9128 29.472C84.0834 29.7067 84.2994 29.896 84.5608 30.04C84.8221 30.1787 85.1181 30.2507 85.4488 30.256C85.7901 30.2613 86.0994 30.1813 86.3768 30.016C86.6594 29.8453 86.8941 29.616 87.0808 29.328L89.0728 29.792C88.7474 30.5013 88.2621 31.0827 87.6168 31.536C86.9714 31.984 86.2488 32.208 85.4488 32.208ZM83.4808 27.2H87.4168C87.3581 26.88 87.2328 26.592 87.0408 26.336C86.8541 26.0747 86.6221 25.8667 86.3448 25.712C86.0674 25.5573 85.7688 25.48 85.4488 25.48C85.1288 25.48 84.8328 25.5573 84.5608 25.712C84.2888 25.8613 84.0568 26.0667 83.8648 26.328C83.6781 26.584 83.5501 26.8747 83.4808 27.2ZM97.8974 26.944V32H95.9454V27.456C95.9454 27.1413 95.868 26.856 95.7134 26.6C95.5587 26.3387 95.3507 26.1333 95.0894 25.984C94.8334 25.8293 94.548 25.752 94.2334 25.752C93.9187 25.752 93.6307 25.8293 93.3694 25.984C93.1134 26.1333 92.908 26.3387 92.7534 26.6C92.604 26.856 92.5294 27.1413 92.5294 27.456V32H90.5774L90.5694 20H92.5214L92.5294 24.712C92.8014 24.424 93.1267 24.1973 93.5054 24.032C93.884 23.8613 94.292 23.776 94.7294 23.776C95.3107 23.776 95.8414 23.92 96.3214 24.208C96.8014 24.4907 97.1827 24.872 97.4654 25.352C97.7534 25.8267 97.8974 26.3573 97.8974 26.944ZM105.367 24H107.319V32H105.367L105.279 31.008C105.06 31.3653 104.77 31.656 104.407 31.88C104.05 32.0987 103.626 32.208 103.135 32.208C102.543 32.208 101.988 32.096 101.471 31.872C100.954 31.648 100.498 31.3387 100.103 30.944C99.7137 30.5493 99.407 30.0933 99.183 29.576C98.9643 29.0587 98.855 28.504 98.855 27.912C98.855 27.3413 98.959 26.8053 99.167 26.304C99.3803 25.8027 99.6763 25.3627 100.055 24.984C100.434 24.6053 100.871 24.3093 101.367 24.096C101.863 23.8827 102.396 23.776 102.967 23.776C103.495 23.776 103.967 23.8933 104.383 24.128C104.804 24.3627 105.162 24.6613 105.455 25.024L105.367 24ZM103.087 30.328C103.503 30.328 103.871 30.224 104.191 30.016C104.511 29.808 104.762 29.528 104.943 29.176C105.124 28.8187 105.215 28.4267 105.215 28C105.215 27.568 105.124 27.176 104.943 26.824C104.762 26.4667 104.508 26.184 104.183 25.976C103.863 25.768 103.498 25.664 103.087 25.664C102.676 25.664 102.3 25.7707 101.959 25.984C101.623 26.192 101.354 26.472 101.151 26.824C100.954 27.176 100.855 27.568 100.855 28C100.855 28.432 100.956 28.824 101.159 29.176C101.362 29.528 101.631 29.808 101.967 30.016C102.308 30.224 102.682 30.328 103.087 30.328ZM116.241 26.944V32H114.289V27.456C114.289 27.1413 114.212 26.856 114.057 26.6C113.902 26.3387 113.694 26.1333 113.433 25.984C113.177 25.8293 112.892 25.752 112.577 25.752C112.262 25.752 111.974 25.8293 111.713 25.984C111.457 26.1333 111.252 26.3387 111.097 26.6C110.948 26.856 110.873 27.1413 110.873 27.456V32H108.921L108.913 24H110.865L110.873 24.712C111.145 24.424 111.47 24.1973 111.849 24.032C112.228 23.8613 112.636 23.776 113.073 23.776C113.654 23.776 114.185 23.92 114.665 24.208C115.145 24.4907 115.526 24.872 115.809 25.352C116.097 25.8267 116.241 26.3573 116.241 26.944ZM122.639 29.592L124.399 30.544C124.031 31.0453 123.569 31.448 123.015 31.752C122.46 32.056 121.855 32.208 121.199 32.208C120.463 32.208 119.791 32.0187 119.183 31.64C118.58 31.2613 118.097 30.7547 117.735 30.12C117.377 29.48 117.199 28.7733 117.199 28C117.199 27.4133 117.303 26.8667 117.511 26.36C117.719 25.848 118.004 25.4 118.367 25.016C118.735 24.6267 119.161 24.3227 119.647 24.104C120.132 23.8853 120.649 23.776 121.199 23.776C121.855 23.776 122.46 23.928 123.015 24.232C123.569 24.536 124.031 24.944 124.399 25.456L122.639 26.4C122.452 26.1867 122.231 26.0213 121.975 25.904C121.724 25.7867 121.465 25.728 121.199 25.728C120.815 25.728 120.468 25.8347 120.159 26.048C119.849 26.256 119.604 26.5333 119.423 26.88C119.241 27.2213 119.151 27.5947 119.151 28C119.151 28.4 119.241 28.7733 119.423 29.12C119.604 29.4613 119.849 29.736 120.159 29.944C120.468 30.152 120.815 30.256 121.199 30.256C121.476 30.256 121.74 30.1973 121.991 30.08C122.241 29.9573 122.457 29.7947 122.639 29.592ZM129.105 32.208C128.369 32.208 127.697 32.0187 127.089 31.64C126.486 31.2613 126.004 30.752 125.641 30.112C125.284 29.472 125.105 28.7653 125.105 27.992C125.105 27.4107 125.209 26.8667 125.417 26.36C125.625 25.848 125.91 25.4 126.273 25.016C126.641 24.6267 127.068 24.3227 127.553 24.104C128.038 23.8853 128.556 23.776 129.105 23.776C129.729 23.776 130.3 23.9093 130.817 24.176C131.34 24.4373 131.782 24.7973 132.145 25.256C132.508 25.7147 132.772 26.2373 132.937 26.824C133.102 27.4107 133.14 28.024 133.049 28.664H127.201C127.276 28.9627 127.398 29.232 127.569 29.472C127.74 29.7067 127.956 29.896 128.217 30.04C128.478 30.1787 128.774 30.2507 129.105 30.256C129.446 30.2613 129.756 30.1813 130.033 30.016C130.316 29.8453 130.55 29.616 130.737 29.328L132.729 29.792C132.404 30.5013 131.918 31.0827 131.273 31.536C130.628 31.984 129.905 32.208 129.105 32.208ZM127.137 27.2H131.073C131.014 26.88 130.889 26.592 130.697 26.336C130.51 26.0747 130.278 25.8667 130.001 25.712C129.724 25.5573 129.425 25.48 129.105 25.48C128.785 25.48 128.489 25.5573 128.217 25.712C127.945 25.8613 127.713 26.0667 127.521 26.328C127.334 26.584 127.206 26.8747 127.137 27.2Z" fill="white"/>
<path d="M16.25 26C17.9739 26 19.6272 25.3152 20.8462 24.0962C22.0652 22.8772 22.75 21.2239 22.75 19.5C22.75 17.7761 22.0652 16.1228 20.8462 14.9038C19.6272 13.6848 17.9739 13 16.25 13H6.5V39H16.25C17.9739 39 19.6272 38.3152 20.8462 37.0962C22.0652 35.8772 22.75 34.2239 22.75 32.5C22.75 30.7761 22.0652 29.1228 20.8462 27.9038C19.6272 26.6848 17.9739 26 16.25 26ZM16.25 26H6.5M30.3333 28.1667H45.5C45.5 26.1554 44.701 24.2266 43.2789 22.8044C41.8567 21.3823 39.9279 20.5833 37.9167 20.5833C35.9054 20.5833 33.9766 21.3823 32.5544 22.8044C31.1323 24.2266 30.3333 26.1554 30.3333 28.1667ZM30.3333 28.1667V32.5C30.5568 34.1221 31.2994 35.6283 32.4499 36.7934C33.6004 37.9585 35.0972 38.7199 36.7164 38.9637C38.3355 39.2076 39.9902 38.9208 41.4328 38.1462C42.8755 37.3717 44.0287 36.151 44.72 34.6667M34.6667 13H41.1667" stroke="white" stroke-width="3" stroke-linecap="round" stroke-linejoin="round"/>
</svg>
