<svg width="135" height="52" viewBox="0 0 135 52" fill="none" xmlns="http://www.w3.org/2000/svg">
<path d="M72.96 32V20.8H76.672C77.4453 20.8 78.168 20.9467 78.84 21.24C79.5173 21.528 80.112 21.9307 80.624 22.448C81.1413 22.96 81.544 23.5547 81.832 24.232C82.1253 24.904 82.272 25.6267 82.272 26.4C82.272 27.1733 82.1253 27.8987 81.832 28.576C81.544 29.248 81.1413 29.8427 80.624 30.36C80.112 30.872 79.5173 31.2747 78.84 31.568C78.168 31.856 77.4453 32 76.672 32H72.96ZM74.912 30.048H76.672C77.168 30.048 77.6347 29.9547 78.072 29.768C78.5147 29.576 78.904 29.3147 79.24 28.984C79.576 28.648 79.84 28.2613 80.032 27.824C80.224 27.3813 80.32 26.9067 80.32 26.4C80.32 25.8933 80.224 25.4213 80.032 24.984C79.84 24.5467 79.576 24.16 79.24 23.824C78.904 23.488 78.5173 23.2267 78.08 23.04C77.6427 22.848 77.1733 22.752 76.672 22.752H74.912V30.048ZM83.6555 32L83.6475 24H85.5995L85.6075 24.712C85.8795 24.424 86.2048 24.1973 86.5835 24.032C86.9622 23.8613 87.3702 23.776 87.8075 23.776C88.1008 23.776 88.3942 23.8187 88.6875 23.904L87.9195 25.872C87.7168 25.792 87.5142 25.752 87.3115 25.752C86.9968 25.752 86.7088 25.8293 86.4475 25.984C86.1915 26.1333 85.9862 26.3387 85.8315 26.6C85.6822 26.856 85.6075 27.1413 85.6075 27.456V32H83.6555ZM89.5538 24H91.5058V32H89.5538V24ZM90.5458 22.968C90.2578 22.968 90.0151 22.8747 89.8178 22.688C89.6204 22.496 89.5218 22.256 89.5218 21.968C89.5218 21.6853 89.6204 21.448 89.8178 21.256C90.0151 21.064 90.2551 20.968 90.5378 20.968C90.8204 20.968 91.0578 21.064 91.2498 21.256C91.4471 21.448 91.5458 21.6853 91.5458 21.968C91.5458 22.256 91.4498 22.496 91.2578 22.688C91.0658 22.8747 90.8284 22.968 90.5458 22.968ZM97.716 23.776C98.4947 23.776 99.204 23.9653 99.844 24.344C100.484 24.7227 100.993 25.232 101.372 25.872C101.751 26.5067 101.94 27.2107 101.94 27.984C101.94 28.5653 101.831 29.112 101.612 29.624C101.393 30.136 101.089 30.5867 100.7 30.976C100.316 31.36 99.868 31.6613 99.356 31.88C98.8493 32.0987 98.3027 32.208 97.716 32.208C97.2147 32.208 96.7693 32.096 96.38 31.872C95.996 31.6427 95.6733 31.3467 95.412 30.984V32H93.46V20H95.412V25C95.6733 24.6373 95.996 24.344 96.38 24.12C96.7693 23.8907 97.2147 23.776 97.716 23.776ZM97.692 30.32C98.108 30.32 98.484 30.216 98.82 30.008C99.1613 29.7947 99.4333 29.512 99.636 29.16C99.8387 28.808 99.94 28.416 99.94 27.984C99.94 27.5573 99.8387 27.168 99.636 26.816C99.4333 26.4587 99.1613 26.176 98.82 25.968C98.4787 25.76 98.1027 25.656 97.692 25.656C97.2867 25.656 96.924 25.7627 96.604 25.976C96.284 26.184 96.0333 26.4667 95.852 26.824C95.6707 27.176 95.58 27.5627 95.58 27.984C95.58 28.416 95.6707 28.8107 95.852 29.168C96.0333 29.52 96.284 29.8 96.604 30.008C96.924 30.216 97.2867 30.32 97.692 30.32ZM107.325 23.776C108.104 23.776 108.813 23.9653 109.453 24.344C110.093 24.7227 110.603 25.232 110.981 25.872C111.36 26.5067 111.549 27.2107 111.549 27.984C111.549 28.5653 111.44 29.112 111.221 29.624C111.003 30.136 110.699 30.5867 110.309 30.976C109.925 31.36 109.477 31.6613 108.965 31.88C108.459 32.0987 107.912 32.208 107.325 32.208C106.824 32.208 106.379 32.096 105.989 31.872C105.605 31.6427 105.283 31.3467 105.021 30.984V32H103.069V20H105.021V25C105.283 24.6373 105.605 24.344 105.989 24.12C106.379 23.8907 106.824 23.776 107.325 23.776ZM107.301 30.32C107.717 30.32 108.093 30.216 108.429 30.008C108.771 29.7947 109.043 29.512 109.245 29.16C109.448 28.808 109.549 28.416 109.549 27.984C109.549 27.5573 109.448 27.168 109.245 26.816C109.043 26.4587 108.771 26.176 108.429 25.968C108.088 25.76 107.712 25.656 107.301 25.656C106.896 25.656 106.533 25.7627 106.213 25.976C105.893 26.184 105.643 26.4667 105.461 26.824C105.28 27.176 105.189 27.5627 105.189 27.984C105.189 28.416 105.28 28.8107 105.461 29.168C105.643 29.52 105.893 29.8 106.213 30.008C106.533 30.216 106.896 30.32 107.301 30.32ZM116.935 23.776C117.713 23.776 118.423 23.9653 119.063 24.344C119.703 24.7227 120.212 25.232 120.591 25.872C120.969 26.5067 121.159 27.2107 121.159 27.984C121.159 28.5653 121.049 29.112 120.831 29.624C120.612 30.136 120.308 30.5867 119.919 30.976C119.535 31.36 119.087 31.6613 118.575 31.88C118.068 32.0987 117.521 32.208 116.935 32.208C116.433 32.208 115.988 32.096 115.599 31.872C115.215 31.6427 114.892 31.3467 114.631 30.984V32H112.679V20H114.631V25C114.892 24.6373 115.215 24.344 115.599 24.12C115.988 23.8907 116.433 23.776 116.935 23.776ZM116.911 30.32C117.327 30.32 117.703 30.216 118.039 30.008C118.38 29.7947 118.652 29.512 118.855 29.16C119.057 28.808 119.159 28.416 119.159 27.984C119.159 27.5573 119.057 27.168 118.855 26.816C118.652 26.4587 118.38 26.176 118.039 25.968C117.697 25.76 117.321 25.656 116.911 25.656C116.505 25.656 116.143 25.7627 115.823 25.976C115.503 26.184 115.252 26.4667 115.071 26.824C114.889 27.176 114.799 27.5627 114.799 27.984C114.799 28.416 114.889 28.8107 115.071 29.168C115.252 29.52 115.503 29.8 115.823 30.008C116.143 30.216 116.505 30.32 116.911 30.32ZM122.288 32V20H124.24V32H122.288ZM129.558 32.208C128.822 32.208 128.15 32.0187 127.542 31.64C126.939 31.2613 126.457 30.752 126.094 30.112C125.737 29.472 125.558 28.7653 125.558 27.992C125.558 27.4107 125.662 26.8667 125.87 26.36C126.078 25.848 126.363 25.4 126.726 25.016C127.094 24.6267 127.521 24.3227 128.006 24.104C128.491 23.8853 129.009 23.776 129.558 23.776C130.182 23.776 130.753 23.9093 131.27 24.176C131.793 24.4373 132.235 24.7973 132.598 25.256C132.961 25.7147 133.225 26.2373 133.39 26.824C133.555 27.4107 133.593 28.024 133.502 28.664H127.654C127.729 28.9627 127.851 29.232 128.022 29.472C128.193 29.7067 128.409 29.896 128.67 30.04C128.931 30.1787 129.227 30.2507 129.558 30.256C129.899 30.2613 130.209 30.1813 130.486 30.016C130.769 29.8453 131.003 29.616 131.19 29.328L133.182 29.792C132.857 30.5013 132.371 31.0827 131.726 31.536C131.081 31.984 130.358 32.208 129.558 32.208ZM127.59 27.2H131.526C131.467 26.88 131.342 26.592 131.15 26.336C130.963 26.0747 130.731 25.8667 130.454 25.712C130.177 25.5573 129.878 25.48 129.558 25.48C129.238 25.48 128.942 25.5573 128.67 25.712C128.398 25.8613 128.166 26.0667 127.974 26.328C127.787 26.584 127.659 26.8747 127.59 27.2Z" fill="white"/>
<path d="M19.5 7.80021C30.3333 20.8002 34.6667 30.5502 35.75 42.9002M13.8667 41.1669C21.45 33.5835 26.8667 27.0835 45.2833 27.3002M6.71666 23.2917C17.55 23.2917 27.9803 22.4683 39.897 12.4583M45.5 26C45.5 36.7696 36.7696 45.5 26 45.5C15.2304 45.5 6.5 36.7696 6.5 26C6.5 15.2304 15.2304 6.5 26 6.5C36.7696 6.5 45.5 15.2304 45.5 26Z" stroke="white" stroke-width="3" stroke-linecap="round" stroke-linejoin="round"/>
</svg>
