<svg width="117" height="52" viewBox="0 0 117 52" fill="none" xmlns="http://www.w3.org/2000/svg">
<path d="M72.96 32V20.8H79.576V22.752H74.912V25.024H78.808V26.976H74.912V32H72.96ZM80.2725 24H82.2245V32H80.2725V24ZM81.2645 22.968C80.9765 22.968 80.7338 22.8747 80.5365 22.688C80.3392 22.496 80.2405 22.256 80.2405 21.968C80.2405 21.6853 80.3392 21.448 80.5365 21.256C80.7338 21.064 80.9738 20.968 81.2565 20.968C81.5392 20.968 81.7765 21.064 81.9685 21.256C82.1658 21.448 82.2645 21.6853 82.2645 21.968C82.2645 22.256 82.1685 22.496 81.9765 22.688C81.7845 22.8747 81.5472 22.968 81.2645 22.968ZM89.896 24H91.848V32.152C91.848 32.728 91.7307 33.2507 91.496 33.72C91.2613 34.1947 90.9413 34.6 90.536 34.936C90.1307 35.2773 89.6667 35.5387 89.144 35.72C88.6213 35.9067 88.072 36 87.496 36C86.936 36 86.3973 35.8853 85.88 35.656C85.3627 35.4267 84.904 35.112 84.504 34.712C84.1093 34.3173 83.808 33.8667 83.6 33.36L85.384 32.552C85.4907 32.8453 85.6507 33.1013 85.864 33.32C86.0827 33.544 86.3333 33.7173 86.616 33.84C86.8987 33.968 87.192 34.032 87.496 34.032C87.8053 34.032 88.1013 33.9893 88.384 33.904C88.672 33.8187 88.9307 33.6933 89.16 33.528C89.3893 33.368 89.568 33.1707 89.696 32.936C89.8293 32.7067 89.896 32.4453 89.896 32.152V31.024C89.6453 31.376 89.3307 31.6613 88.952 31.88C88.5733 32.0987 88.136 32.208 87.64 32.208C87.064 32.208 86.5253 32.0987 86.024 31.88C85.5227 31.6613 85.08 31.36 84.696 30.976C84.3173 30.5867 84.0187 30.1387 83.8 29.632C83.5867 29.1253 83.48 28.5813 83.48 28C83.48 27.4187 83.5867 26.8747 83.8 26.368C84.0187 25.8613 84.3173 25.416 84.696 25.032C85.08 24.6427 85.5227 24.3387 86.024 24.12C86.5253 23.9013 87.064 23.792 87.64 23.792C88.136 23.792 88.5733 23.9013 88.952 24.12C89.3307 24.3333 89.6453 24.616 89.896 24.968V24ZM87.664 30.328C88.0747 30.328 88.4373 30.224 88.752 30.016C89.072 29.8027 89.3227 29.52 89.504 29.168C89.6853 28.8107 89.776 28.4213 89.776 28C89.776 27.5733 89.6827 27.184 89.496 26.832C89.3147 26.48 89.064 26.1973 88.744 25.984C88.4293 25.7707 88.0693 25.664 87.664 25.664C87.264 25.664 86.8987 25.7707 86.568 25.984C86.2373 26.192 85.9733 26.472 85.776 26.824C85.5787 27.176 85.48 27.568 85.48 28C85.48 28.432 85.5787 28.824 85.776 29.176C85.9733 29.528 86.2373 29.808 86.568 30.016C86.8987 30.224 87.264 30.328 87.664 30.328ZM93.7725 32V24H95.7245V24.712C95.9965 24.424 96.3218 24.1973 96.7005 24.032C97.0792 23.8613 97.4872 23.776 97.9245 23.776C98.4792 23.776 98.9885 23.9067 99.4525 24.168C99.9218 24.4293 100.295 24.7787 100.573 25.216C100.855 24.7787 101.229 24.4293 101.693 24.168C102.157 23.9067 102.666 23.776 103.221 23.776C103.807 23.776 104.338 23.92 104.813 24.208C105.293 24.4907 105.674 24.872 105.957 25.352C106.245 25.8267 106.389 26.3573 106.389 26.944V32H104.437V27.464C104.437 27.1547 104.359 26.872 104.205 26.616C104.055 26.3547 103.853 26.1467 103.597 25.992C103.346 25.832 103.063 25.752 102.749 25.752C102.434 25.752 102.149 25.8293 101.893 25.984C101.642 26.1333 101.439 26.336 101.285 26.592C101.13 26.848 101.053 27.1387 101.053 27.464V32H99.1005V27.464C99.1005 27.1387 99.0258 26.848 98.8765 26.592C98.7272 26.336 98.5245 26.1333 98.2685 25.984C98.0125 25.8293 97.7272 25.752 97.4125 25.752C97.1032 25.752 96.8205 25.832 96.5645 25.992C96.3085 26.1467 96.1032 26.3547 95.9485 26.616C95.7992 26.872 95.7245 27.1547 95.7245 27.464V32H93.7725ZM113.867 24H115.819V32H113.867L113.779 31.008C113.56 31.3653 113.27 31.656 112.907 31.88C112.55 32.0987 112.126 32.208 111.635 32.208C111.043 32.208 110.488 32.096 109.971 31.872C109.454 31.648 108.998 31.3387 108.603 30.944C108.214 30.5493 107.907 30.0933 107.683 29.576C107.464 29.0587 107.355 28.504 107.355 27.912C107.355 27.3413 107.459 26.8053 107.667 26.304C107.88 25.8027 108.176 25.3627 108.555 24.984C108.934 24.6053 109.371 24.3093 109.867 24.096C110.363 23.8827 110.896 23.776 111.467 23.776C111.995 23.776 112.467 23.8933 112.883 24.128C113.304 24.3627 113.662 24.6613 113.955 25.024L113.867 24ZM111.587 30.328C112.003 30.328 112.371 30.224 112.691 30.016C113.011 29.808 113.262 29.528 113.443 29.176C113.624 28.8187 113.715 28.4267 113.715 28C113.715 27.568 113.624 27.176 113.443 26.824C113.262 26.4667 113.008 26.184 112.683 25.976C112.363 25.768 111.998 25.664 111.587 25.664C111.176 25.664 110.8 25.7707 110.459 25.984C110.123 26.192 109.854 26.472 109.651 26.824C109.454 27.176 109.355 27.568 109.355 28C109.355 28.432 109.456 28.824 109.659 29.176C109.862 29.528 110.131 29.808 110.467 30.016C110.808 30.224 111.182 30.328 111.587 30.328Z" fill="white"/>
<path d="M32.5 19.5C28.9101 19.5 26 22.4101 26 26C26 29.5899 28.9101 32.5 32.5 32.5C36.0899 32.5 39 29.5899 39 26C39 22.4101 36.0899 19.5 32.5 19.5ZM32.5 19.5C36.0899 19.5 39 16.5899 39 13C39 9.41015 36.0899 6.5 32.5 6.5H19.5C15.9101 6.5 13 9.41015 13 13C13 16.5899 15.9101 19.5 19.5 19.5M32.5 19.5H19.5M19.5 19.5C17.7761 19.5 16.1228 20.1848 14.9038 21.4038C13.6848 22.6228 13 24.2761 13 26C13 27.7239 13.6848 29.3772 14.9038 30.5962C16.1228 31.8152 17.7761 32.5 19.5 32.5M19.5 32.5H26M19.5 32.5C18.2144 32.5 16.9577 32.8812 15.8888 33.5954C14.8199 34.3097 13.9868 35.3248 13.4948 36.5126C13.0028 37.7003 12.8741 39.0072 13.1249 40.2681C13.3757 41.529 13.9948 42.6872 14.9038 43.5962C15.8129 44.5052 16.971 45.1243 18.2319 45.3751C19.4928 45.6259 20.7997 45.4972 21.9874 45.0052C23.1752 44.5132 24.1903 43.6801 24.9046 42.6112C25.6188 41.5423 26 40.2856 26 39V6.5" stroke="white" stroke-width="3" stroke-linecap="round" stroke-linejoin="round"/>
</svg>
