<svg width="122" height="52" viewBox="0 0 122 52" fill="none" xmlns="http://www.w3.org/2000/svg">
<path d="M78.144 32.208C77.3653 32.208 76.64 32.056 75.968 31.752C75.3013 31.448 74.72 31.0293 74.224 30.496C73.728 29.9573 73.3387 29.3387 73.056 28.64C72.7787 27.936 72.64 27.184 72.64 26.384C72.64 25.5413 72.7893 24.768 73.088 24.064C73.392 23.36 73.8053 22.7493 74.328 22.232C74.8507 21.7147 75.4427 21.3147 76.104 21.032C76.7707 20.7493 77.464 20.608 78.184 20.608C78.9893 20.608 79.7707 20.7973 80.528 21.176C81.2907 21.5493 81.9627 22.128 82.544 22.912L80.8 23.848C80.4427 23.4107 80.032 23.0853 79.568 22.872C79.1093 22.6533 78.64 22.544 78.16 22.544C77.6907 22.544 77.24 22.64 76.808 22.832C76.3813 23.024 76 23.296 75.664 23.648C75.3333 23.9947 75.072 24.4053 74.88 24.88C74.688 25.3493 74.592 25.864 74.592 26.424C74.592 26.952 74.6853 27.4507 74.872 27.92C75.0587 28.384 75.3147 28.792 75.64 29.144C75.9707 29.4907 76.352 29.7627 76.784 29.96C77.216 30.1573 77.68 30.256 78.176 30.256C78.5067 30.256 78.8293 30.2053 79.144 30.104C79.464 29.9973 79.7627 29.8453 80.04 29.648C80.3227 29.4507 80.5733 29.2107 80.792 28.928C81.016 28.6453 81.2027 28.3253 81.352 27.968H79.312V26.264H83.648C83.6693 27.08 83.5413 27.8453 83.264 28.56C82.9867 29.2747 82.5947 29.9067 82.088 30.456C81.5813 31.0053 80.992 31.4347 80.32 31.744C79.648 32.0533 78.9227 32.208 78.144 32.208ZM85.1319 24H87.0839V32H85.1319V24ZM86.1239 22.968C85.8359 22.968 85.5932 22.8747 85.3959 22.688C85.1985 22.496 85.0999 22.256 85.0999 21.968C85.0999 21.6853 85.1985 21.448 85.3959 21.256C85.5932 21.064 85.8332 20.968 86.1159 20.968C86.3985 20.968 86.6359 21.064 86.8279 21.256C87.0252 21.448 87.1239 21.6853 87.1239 21.968C87.1239 22.256 87.0279 22.496 86.8359 22.688C86.6439 22.8747 86.4065 22.968 86.1239 22.968ZM93.2949 25.952H91.7429V32H89.7909V25.952H88.6069V24H89.7909V21.488H91.7429V24H93.2949V25.952ZM102.069 26.944V32H100.117V27.456C100.117 27.1413 100.04 26.856 99.8853 26.6C99.7306 26.3387 99.5226 26.1333 99.2613 25.984C99.0053 25.8293 98.7199 25.752 98.4053 25.752C98.0906 25.752 97.8026 25.8293 97.5413 25.984C97.2853 26.1333 97.0799 26.3387 96.9253 26.6C96.7759 26.856 96.7013 27.1413 96.7013 27.456V32H94.7493L94.7413 20H96.6933L96.7013 24.712C96.9733 24.424 97.2986 24.1973 97.6773 24.032C98.0559 23.8613 98.4639 23.776 98.9013 23.776C99.4826 23.776 100.013 23.92 100.493 24.208C100.973 24.4907 101.355 24.872 101.637 25.352C101.925 25.8267 102.069 26.3573 102.069 26.944ZM103.343 29.04V24H105.295V28.528C105.295 28.8427 105.372 29.1307 105.527 29.392C105.682 29.648 105.887 29.8533 106.143 30.008C106.404 30.1573 106.69 30.232 106.999 30.232C107.319 30.232 107.607 30.1573 107.863 30.008C108.119 29.8533 108.324 29.648 108.479 29.392C108.634 29.1307 108.711 28.8427 108.711 28.528V24H110.663L110.671 32H108.719L108.711 31.272C108.434 31.56 108.106 31.7893 107.727 31.96C107.348 32.1253 106.943 32.208 106.511 32.208C105.93 32.208 105.399 32.0667 104.919 31.784C104.439 31.496 104.055 31.1147 103.767 30.64C103.484 30.16 103.343 29.6267 103.343 29.04ZM116.575 23.776C117.354 23.776 118.063 23.9653 118.703 24.344C119.343 24.7227 119.853 25.232 120.231 25.872C120.61 26.5067 120.799 27.2107 120.799 27.984C120.799 28.5653 120.69 29.112 120.471 29.624C120.253 30.136 119.949 30.5867 119.559 30.976C119.175 31.36 118.727 31.6613 118.215 31.88C117.709 32.0987 117.162 32.208 116.575 32.208C116.074 32.208 115.629 32.096 115.239 31.872C114.855 31.6427 114.533 31.3467 114.271 30.984V32H112.319V20H114.271V25C114.533 24.6373 114.855 24.344 115.239 24.12C115.629 23.8907 116.074 23.776 116.575 23.776ZM116.551 30.32C116.967 30.32 117.343 30.216 117.679 30.008C118.021 29.7947 118.293 29.512 118.495 29.16C118.698 28.808 118.799 28.416 118.799 27.984C118.799 27.5573 118.698 27.168 118.495 26.816C118.293 26.4587 118.021 26.176 117.679 25.968C117.338 25.76 116.962 25.656 116.551 25.656C116.146 25.656 115.783 25.7627 115.463 25.976C115.143 26.184 114.893 26.4667 114.711 26.824C114.53 27.176 114.439 27.5627 114.439 27.984C114.439 28.416 114.53 28.8107 114.711 29.168C114.893 29.52 115.143 29.8 115.463 30.008C115.783 30.216 116.146 30.32 116.551 30.32Z" fill="white"/>
<path d="M19.5 41.1663C10.1833 44.1996 10.1833 35.7496 6.5 34.6663M32.5 45.4996V37.9163C32.5 35.7496 32.7167 34.883 31.4167 33.583C37.4833 32.933 43.3333 30.5497 43.3333 20.583C43.3307 17.9937 42.3205 15.5072 40.5167 13.6497C41.3627 11.4006 41.2848 8.90818 40.3 6.71632C40.3 6.71632 37.9167 6.06632 32.7167 9.53298C28.3123 8.38592 23.6876 8.38592 19.2833 9.53298C14.0833 6.06632 11.7 6.71632 11.7 6.71632C10.7152 8.90818 10.6373 11.4006 11.4833 13.6497C9.67948 15.5072 8.6693 17.9937 8.66667 20.583C8.66667 30.5497 14.5167 32.933 20.5833 33.583C19.2833 34.883 19.2833 36.183 19.5 37.9163V45.4996" stroke="white" stroke-width="3" stroke-linecap="round" stroke-linejoin="round"/>
</svg>
