<svg aria-hidden="true" xmlns="http://www.w3.org/2000/svg" xmlns:xlink="http://www.w3.org/1999/xlink"><symbol viewBox="0 0 24 24" id="arrow" xmlns="http://www.w3.org/2000/svg">
<path fill-rule="evenodd" clip-rule="evenodd" d="M14.2929 7.29289C14.6834 6.90237 15.3166 6.90237 15.7071 7.29289L19.7071 11.2929C20.0976 11.6834 20.0976 12.3166 19.7071 12.7071L15.7071 16.7071C15.3166 17.0976 14.6834 17.0976 14.2929 16.7071C13.9024 16.3166 13.9024 15.6834 14.2929 15.2929L16.5858 13H5C4.44772 13 4 12.5523 4 12C4 11.4477 4.44772 11 5 11H16.5858L14.2929 8.70711C13.9024 8.31658 13.9024 7.68342 14.2929 7.29289Z"/>
</symbol><symbol viewBox="0 0 24 24" id="brand-facebook" xmlns="http://www.w3.org/2000/svg">
<path fill-rule="evenodd" clip-rule="evenodd" d="M10.7574 3.75736C11.8826 2.63214 13.4087 2 15 2H18C18.5523 2 19 2.44772 19 3V7C19 7.55228 18.5523 8 18 8H15V9H18C18.3079 9 18.5987 9.14187 18.7882 9.38459C18.9777 9.6273 19.0448 9.94379 18.9701 10.2425L17.9701 14.2425C17.8589 14.6877 17.4589 15 17 15H15V21C15 21.5523 14.5523 22 14 22H10C9.44772 22 9 21.5523 9 21V15H7C6.44772 15 6 14.5523 6 14V10C6 9.44772 6.44772 9 7 9H9V8C9 6.4087 9.63214 4.88258 10.7574 3.75736ZM15 4C13.9391 4 12.9217 4.42143 12.1716 5.17157C11.4214 5.92172 11 6.93913 11 8V10C11 10.5523 10.5523 11 10 11H8V13H10C10.5523 13 11 13.4477 11 14V20H13V14C13 13.4477 13.4477 13 14 13H16.2192L16.7192 11H14C13.4477 11 13 10.5523 13 10V8C13 7.46957 13.2107 6.96086 13.5858 6.58579C13.9609 6.21071 14.4696 6 15 6H17V4H15Z"/>
</symbol><symbol viewBox="0 0 24 24" id="brand-instagram" xmlns="http://www.w3.org/2000/svg">
<path fill-rule="evenodd" clip-rule="evenodd" d="M8 5C6.34315 5 5 6.34315 5 8V16C5 17.6569 6.34315 19 8 19H16C17.6569 19 19 17.6569 19 16V8C19 6.34315 17.6569 5 16 5H8ZM3 8C3 5.23858 5.23858 3 8 3H16C18.7614 3 21 5.23858 21 8V16C21 18.7614 18.7614 21 16 21H8C5.23858 21 3 18.7614 3 16V8ZM12 10C10.8954 10 10 10.8954 10 12C10 13.1046 10.8954 14 12 14C13.1046 14 14 13.1046 14 12C14 10.8954 13.1046 10 12 10ZM8 12C8 9.79086 9.79086 8 12 8C14.2091 8 16 9.79086 16 12C16 14.2091 14.2091 16 12 16C9.79086 16 8 14.2091 8 12Z"/>
</symbol><symbol viewBox="0 0 24 24" id="brand-linkedin" xmlns="http://www.w3.org/2000/svg">
<path fill-rule="evenodd" clip-rule="evenodd" d="M6 5C5.44772 5 5 5.44772 5 6V18C5 18.5523 5.44772 19 6 19H18C18.5523 19 19 18.5523 19 18V6C19 5.44772 18.5523 5 18 5H6ZM3 6C3 4.34315 4.34315 3 6 3H18C19.6569 3 21 4.34315 21 6V18C21 19.6569 19.6569 21 18 21H6C4.34315 21 3 19.6569 3 18V6ZM8 7C8.55228 7 9 7.44772 9 8V8.01C9 8.56228 8.55228 9.01 8 9.01C7.44772 9.01 7 8.56228 7 8.01V8C7 7.44772 7.44772 7 8 7ZM8 10C8.55228 10 9 10.4477 9 11V16C9 16.5523 8.55228 17 8 17C7.44772 17 7 16.5523 7 16V11C7 10.4477 7.44772 10 8 10ZM11 16C11 16.5523 11.4477 17 12 17C12.5523 17 13 16.5523 13 16V13C13 12.7348 13.1054 12.4804 13.2929 12.2929C13.4804 12.1054 13.7348 12 14 12C14.2652 12 14.5196 12.1054 14.7071 12.2929C14.8946 12.4804 15 12.7348 15 13V16C15 16.5523 15.4477 17 16 17C16.5523 17 17 16.5523 17 16V13C17 12.2043 16.6839 11.4413 16.1213 10.8787C15.5587 10.3161 14.7957 10 14 10C13.5483 10 13.1071 10.1019 12.7071 10.2929C12.5261 10.1119 12.2761 10 12 10C11.4477 10 11 10.4477 11 11V16Z"/>
</symbol><symbol viewBox="0 0 24 24" id="brand-twitter" xmlns="http://www.w3.org/2000/svg">
<path fill-rule="evenodd" clip-rule="evenodd" d="M19.2814 3.87973C20.1148 3.64943 20.7968 3.48002 21.5244 3.12874C21.7014 3.03289 21.9084 2.98971 22.1214 3.01575C22.6231 3.07707 23.0001 3.503 23.0001 4.00836V4.00936C23.0001 4.10124 22.9875 4.19119 22.9636 4.27716C22.771 5.02827 22.2635 6.06034 21.8659 6.84082C21.6458 7.27272 21.4636 7.61826 21.3154 7.913C21.2571 8.02899 21.213 8.11972 21.182 8.18717C21.1742 9.48901 20.9951 10.7844 20.6492 12.04L20.6478 12.0448C19.4203 16.4145 16.2065 19.3456 12.3131 20.4767C8.87709 21.4741 4.99812 20.7723 1.52153 18.8774C1.11374 18.6551 0.912642 18.1814 1.03606 17.7336C1.15947 17.2859 1.57491 16.9821 2.039 17.0001C3.44502 17.0548 4.6941 16.7018 5.94842 16.0579C4.65017 15.2557 3.71768 14.3207 3.07835 13.3106C2.19621 11.9168 1.91904 10.4542 1.9319 9.15186C1.94469 7.85718 2.24338 6.7044 2.53097 5.88524C2.67574 5.47288 2.82037 5.13753 2.93066 4.90187C3.13849 4.45773 3.39545 4.03082 3.9457 4.00084C4.28703 3.98224 4.61421 4.13929 4.8132 4.41724C6.29896 6.49251 8.49453 7.7626 10.9998 7.97193C10.9883 5.86667 12.3127 4.05856 14.2694 3.32586C15.8937 2.71766 17.8162 2.64719 19.2814 3.87973ZM4.3005 6.90562C4.10579 7.54169 3.94013 8.32837 3.93181 9.17161C3.92191 10.1734 4.13337 11.2378 4.7683 12.241C5.40179 13.2419 6.50381 14.2561 8.39974 15.0827C8.73518 15.2289 8.96396 15.5467 8.99621 15.9112C9.02847 16.2757 8.85905 16.6287 8.5545 16.8316C7.60281 17.4656 6.62155 18.0197 5.56931 18.4099C7.72357 19.0392 9.85922 19.1064 11.7551 18.5561M4.3005 6.90562C6.314 8.94734 9.03725 10.0755 12.0257 9.99903C12.5678 9.98516 13.0001 9.54168 13.0001 8.99936V7.99936L13 7.98564C12.9831 6.75447 13.7462 5.65739 14.9708 5.19886C16.3614 4.67813 17.5144 4.83054 18.2517 5.66258C18.509 5.95295 18.911 6.06828 19.2831 5.95847C19.4914 5.89702 19.7106 5.83719 19.938 5.77515C20.0242 5.75162 20.1116 5.72777 20.2 5.7034C20.1617 5.77965 20.1229 5.85623 20.0838 5.9329C19.9951 6.10708 19.9026 6.28625 19.8145 6.45684C19.7078 6.66338 19.6077 6.85733 19.5286 7.01459C19.4283 7.21396 19.3241 7.41507 19.2521 7.62691L19.2506 7.63111C19.2363 7.67282 19.1811 7.83393 19.1821 8.0269C19.1886 9.20239 19.0337 10.3732 18.7216 11.5065C17.6906 15.1733 15.0209 17.6073 11.7551 18.5561"/>
</symbol><symbol viewBox="0 0 17 16" id="chevron-right" xmlns="http://www.w3.org/2000/svg">
<path fill-rule="evenodd" clip-rule="evenodd" d="M6.02851 3.52925C6.28886 3.2689 6.71097 3.2689 6.97132 3.52925L10.9713 7.52925C11.2317 7.7896 11.2317 8.21171 10.9713 8.47206L6.97132 12.4721C6.71097 12.7324 6.28886 12.7324 6.02851 12.4721C5.76816 12.2117 5.76816 11.7896 6.02851 11.5292L9.55711 8.00065L6.02851 4.47206C5.76816 4.21171 5.76816 3.7896 6.02851 3.52925Z"/>
</symbol><symbol viewBox="0 0 24 24" id="player-play" xmlns="http://www.w3.org/2000/svg">
<path fill-rule="evenodd" clip-rule="evenodd" d="M6.5122 3.12705C6.82845 2.95032 7.21556 2.95847 7.5241 3.14834L20.5241 11.1483C20.8198 11.3303 21 11.6527 21 12C21 12.3473 20.8198 12.6697 20.5241 12.8517L7.5241 20.8517C7.21556 21.0415 6.82845 21.0497 6.5122 20.873C6.19594 20.6962 6 20.3623 6 20V4C6 3.63772 6.19594 3.30377 6.5122 3.12705ZM8 5.78956V18.2104L18.092 12L8 5.78956Z"/>
</symbol></svg>