<svg width="24" height="24" viewBox="0 0 24 24" fill="none" xmlns="http://www.w3.org/2000/svg">
<path fill-rule="evenodd" clip-rule="evenodd" d="M12 2C17.4249 2 22 6.54768 22 12.0001C22 17.4523 17.4361 22.0001 12 22.0001C6.56393 22.0001 2 17.4523 2 12.0001C2 6.54768 6.57509 2 12 2ZM14.3753 19.6416C16.3116 19.0404 17.9329 17.7234 18.9297 16.0001H15.6277C15.3421 17.2535 14.9225 18.4745 14.3753 19.6416ZM13.5697 16.0001C13.2202 17.3537 12.6937 18.6603 12 19.8851C11.3063 18.6603 10.7797 17.3537 10.4302 16.0001H13.5697ZM15.9663 14.0001H19.748C19.9125 13.3608 20 12.6907 20 12.0001C20 11.3095 19.9125 10.6393 19.748 10.0001H15.9663C16.0404 10.6621 16.0778 11.3297 16.0778 12.0001C16.0778 12.6704 16.0404 13.3381 15.9663 14.0001ZM13.9523 10.0001C14.0356 10.6612 14.0778 11.3291 14.0778 12.0001C14.0778 12.671 14.0356 13.3389 13.9523 14.0001H10.0477C9.96437 13.3389 9.92218 12.671 9.92218 12.0001C9.92218 11.3291 9.96437 10.6612 10.0477 10.0001H13.9523ZM15.6277 8.00004H18.9297C17.9329 6.27672 16.3116 4.95977 14.3753 4.35854C14.9225 5.52568 15.3421 6.74666 15.6277 8.00004ZM13.5697 8.00004H10.4302C10.7797 6.64646 11.3063 5.33981 12 4.11505C12.6937 5.33981 13.2202 6.64646 13.5697 8.00004ZM9.62469 4.35855C7.68839 4.95978 6.06714 6.27672 5.07026 8.00004H8.37225C8.65792 6.74667 9.07745 5.52568 9.62469 4.35855ZM8.03363 10.0001H4.25203C4.08751 10.6393 4 11.3095 4 12.0001C4 12.6907 4.08751 13.3608 4.25204 14.0001H8.03363C7.95961 13.3381 7.92218 12.6704 7.92218 12.0001C7.92218 11.3297 7.95961 10.6621 8.03363 10.0001ZM8.37225 16.0001C8.65792 17.2535 9.07746 18.4745 9.62469 19.6416C7.68839 19.0404 6.06714 17.7234 5.07026 16.0001H8.37225Z" fill="white"/>
</svg>
