<svg width="135" height="52" viewBox="0 0 135 52" fill="none" xmlns="http://www.w3.org/2000/svg">
<path d="M72.96 32V20.8H76.96C77.568 20.8 78.1173 20.952 78.608 21.256C79.104 21.56 79.496 21.968 79.784 22.48C80.072 22.992 80.216 23.5547 80.216 24.168C80.216 24.7973 80.0667 25.368 79.768 25.88C79.4747 26.3867 79.08 26.792 78.584 27.096C78.088 27.3947 77.5467 27.544 76.96 27.544H74.912V32H72.96ZM74.912 25.592H76.752C77.0293 25.592 77.2827 25.5227 77.512 25.384C77.7413 25.2453 77.9227 25.0587 78.056 24.824C78.1947 24.5893 78.264 24.328 78.264 24.04C78.264 23.7467 78.1947 23.4827 78.056 23.248C77.9227 23.0133 77.7413 22.8267 77.512 22.688C77.2827 22.5493 77.0293 22.48 76.752 22.48H74.912V25.592ZM81.46 24H83.412V32H81.46V24ZM82.452 22.968C82.164 22.968 81.9213 22.8747 81.724 22.688C81.5267 22.496 81.428 22.256 81.428 21.968C81.428 21.6853 81.5267 21.448 81.724 21.256C81.9213 21.064 82.1613 20.968 82.444 20.968C82.7267 20.968 82.964 21.064 83.156 21.256C83.3533 21.448 83.452 21.6853 83.452 21.968C83.452 22.256 83.356 22.496 83.164 22.688C82.972 22.8747 82.7347 22.968 82.452 22.968ZM92.6005 26.944V32H90.6485V27.456C90.6485 27.1413 90.5712 26.856 90.4165 26.6C90.2618 26.3387 90.0538 26.1333 89.7925 25.984C89.5365 25.8293 89.2512 25.752 88.9365 25.752C88.6218 25.752 88.3338 25.8293 88.0725 25.984C87.8165 26.1333 87.6112 26.3387 87.4565 26.6C87.3072 26.856 87.2325 27.1413 87.2325 27.456V32H85.2805L85.2725 24H87.2245L87.2325 24.712C87.5045 24.424 87.8298 24.1973 88.2085 24.032C88.5872 23.8613 88.9952 23.776 89.4325 23.776C90.0138 23.776 90.5445 23.92 91.0245 24.208C91.5045 24.4907 91.8858 24.872 92.1685 25.352C92.4565 25.8267 92.6005 26.3573 92.6005 26.944ZM98.4824 25.952H96.9304V32H94.9784V25.952H93.7944V24H94.9784V21.488H96.9304V24H98.4824V25.952ZM103.261 32.208C102.525 32.208 101.853 32.0187 101.245 31.64C100.643 31.2613 100.16 30.752 99.7973 30.112C99.4399 29.472 99.2613 28.7653 99.2613 27.992C99.2613 27.4107 99.3653 26.8667 99.5733 26.36C99.7813 25.848 100.067 25.4 100.429 25.016C100.797 24.6267 101.224 24.3227 101.709 24.104C102.195 23.8853 102.712 23.776 103.261 23.776C103.885 23.776 104.456 23.9093 104.973 24.176C105.496 24.4373 105.939 24.7973 106.301 25.256C106.664 25.7147 106.928 26.2373 107.093 26.824C107.259 27.4107 107.296 28.024 107.205 28.664H101.357C101.432 28.9627 101.555 29.232 101.725 29.472C101.896 29.7067 102.112 29.896 102.373 30.04C102.635 30.1787 102.931 30.2507 103.261 30.256C103.603 30.2613 103.912 30.1813 104.189 30.016C104.472 29.8453 104.707 29.616 104.893 29.328L106.885 29.792C106.56 30.5013 106.075 31.0827 105.429 31.536C104.784 31.984 104.061 32.208 103.261 32.208ZM101.293 27.2H105.229C105.171 26.88 105.045 26.592 104.853 26.336C104.667 26.0747 104.435 25.8667 104.157 25.712C103.88 25.5573 103.581 25.48 103.261 25.48C102.941 25.48 102.645 25.5573 102.373 25.712C102.101 25.8613 101.869 26.0667 101.677 26.328C101.491 26.584 101.363 26.8747 101.293 27.2ZM108.515 32L108.507 24H110.459L110.467 24.712C110.739 24.424 111.064 24.1973 111.443 24.032C111.822 23.8613 112.23 23.776 112.667 23.776C112.96 23.776 113.254 23.8187 113.547 23.904L112.779 25.872C112.576 25.792 112.374 25.752 112.171 25.752C111.856 25.752 111.568 25.8293 111.307 25.984C111.051 26.1333 110.846 26.3387 110.691 26.6C110.542 26.856 110.467 27.1413 110.467 27.456V32H108.515ZM117.589 32.208C116.853 32.208 116.181 32.0187 115.573 31.64C114.971 31.2613 114.488 30.752 114.125 30.112C113.768 29.472 113.589 28.7653 113.589 27.992C113.589 27.4107 113.693 26.8667 113.901 26.36C114.109 25.848 114.395 25.4 114.757 25.016C115.125 24.6267 115.552 24.3227 116.037 24.104C116.523 23.8853 117.04 23.776 117.589 23.776C118.213 23.776 118.784 23.9093 119.301 24.176C119.824 24.4373 120.267 24.7973 120.629 25.256C120.992 25.7147 121.256 26.2373 121.421 26.824C121.587 27.4107 121.624 28.024 121.533 28.664H115.685C115.76 28.9627 115.883 29.232 116.053 29.472C116.224 29.7067 116.44 29.896 116.701 30.04C116.963 30.1787 117.259 30.2507 117.589 30.256C117.931 30.2613 118.24 30.1813 118.517 30.016C118.8 29.8453 119.035 29.616 119.221 29.328L121.213 29.792C120.888 30.5013 120.403 31.0827 119.757 31.536C119.112 31.984 118.389 32.208 117.589 32.208ZM115.621 27.2H119.557C119.499 26.88 119.373 26.592 119.181 26.336C118.995 26.0747 118.763 25.8667 118.485 25.712C118.208 25.5573 117.909 25.48 117.589 25.48C117.269 25.48 116.973 25.5573 116.701 25.712C116.429 25.8613 116.197 26.0667 116.005 26.328C115.819 26.584 115.691 26.8747 115.621 27.2ZM125.258 32.144C124.842 32.1173 124.439 32.0347 124.049 31.896C123.666 31.752 123.324 31.5573 123.026 31.312C122.727 31.0667 122.498 30.7733 122.338 30.432L123.986 29.728C124.05 29.8347 124.154 29.9493 124.298 30.072C124.442 30.1893 124.612 30.288 124.81 30.368C125.012 30.448 125.234 30.488 125.474 30.488C125.676 30.488 125.868 30.4613 126.049 30.408C126.236 30.3493 126.386 30.2613 126.498 30.144C126.615 30.0267 126.674 29.8747 126.674 29.688C126.674 29.4907 126.604 29.3387 126.466 29.232C126.332 29.12 126.162 29.0373 125.954 28.984C125.751 28.9253 125.554 28.872 125.362 28.824C124.855 28.7227 124.383 28.5653 123.946 28.352C123.514 28.1387 123.164 27.864 122.898 27.528C122.636 27.1867 122.506 26.776 122.506 26.296C122.506 25.768 122.644 25.312 122.922 24.928C123.204 24.544 123.57 24.248 124.018 24.04C124.471 23.832 124.959 23.728 125.482 23.728C126.116 23.728 126.698 23.8613 127.226 24.128C127.759 24.3893 128.18 24.76 128.49 25.24L126.946 26.152C126.871 26.024 126.767 25.9067 126.634 25.8C126.5 25.688 126.348 25.5973 126.178 25.528C126.007 25.4533 125.828 25.4107 125.642 25.4C125.402 25.3893 125.183 25.4107 124.986 25.464C124.788 25.5173 124.628 25.608 124.506 25.736C124.388 25.864 124.33 26.0347 124.33 26.248C124.33 26.4507 124.41 26.6027 124.57 26.704C124.73 26.8 124.922 26.8747 125.146 26.928C125.375 26.9813 125.594 27.04 125.802 27.104C126.271 27.2587 126.711 27.448 127.122 27.672C127.538 27.896 127.871 28.1707 128.122 28.496C128.372 28.8213 128.492 29.2107 128.482 29.664C128.482 30.1813 128.327 30.6347 128.018 31.024C127.708 31.408 127.308 31.7013 126.818 31.904C126.332 32.1067 125.812 32.1867 125.258 32.144ZM134.139 25.952H132.587V32H130.635V25.952H129.451V24H130.635V21.488H132.587V24H134.139V25.952Z" fill="white"/>
<path d="M17.3333 43.3333L26 23.8333M23.1833 30.3333C24.1302 33.0698 26.2817 34.6667 28.7083 34.6667C33.1955 34.6667 36.8333 31.2997 36.8333 26C36.8352 24.418 36.4905 22.8547 35.8236 21.4201C35.1566 19.9855 34.1835 18.7144 32.9727 17.6962C31.7619 16.6779 30.3428 15.9372 28.8151 15.5261C27.2874 15.115 25.6882 15.0435 24.1299 15.3166C22.5716 15.5897 21.092 16.2008 19.7952 17.1069C18.4983 18.0131 17.4157 19.1922 16.6233 20.5615C15.831 21.9309 15.3481 23.4571 15.2088 25.033C15.0694 26.6089 15.2769 28.1962 15.8167 29.6833M45.5 26C45.5 36.7696 36.7696 45.5 26 45.5C15.2304 45.5 6.5 36.7696 6.5 26C6.5 15.2304 15.2304 6.5 26 6.5C36.7696 6.5 45.5 15.2304 45.5 26Z" stroke="white" stroke-width="3" stroke-linecap="round" stroke-linejoin="round"/>
</svg>
