<svg width="122" height="52" viewBox="0 0 122 52" fill="none" xmlns="http://www.w3.org/2000/svg">
<path d="M76.992 32.208C76.3733 32.208 75.7787 32.112 75.208 31.92C74.6427 31.7227 74.1467 31.4427 73.72 31.08C73.2933 30.712 72.9867 30.272 72.8 29.76L74.632 29.088C74.7067 29.3013 74.8587 29.496 75.088 29.672C75.3173 29.848 75.5973 29.9893 75.928 30.096C76.2587 30.2027 76.6133 30.256 76.992 30.256C77.3813 30.256 77.744 30.1973 78.08 30.08C78.4213 29.9573 78.696 29.7893 78.904 29.576C79.112 29.3573 79.216 29.104 79.216 28.816C79.216 28.5227 79.1067 28.2827 78.888 28.096C78.6693 27.904 78.3893 27.752 78.048 27.64C77.7067 27.528 77.3547 27.4427 76.992 27.384C76.1973 27.2613 75.4853 27.072 74.856 26.816C74.2267 26.56 73.728 26.2053 73.36 25.752C72.9973 25.2987 72.816 24.712 72.816 23.992C72.816 23.3147 73.0107 22.7227 73.4 22.216C73.7893 21.7093 74.3013 21.3147 74.936 21.032C75.5707 20.7493 76.256 20.608 76.992 20.608C77.6053 20.608 78.1973 20.704 78.768 20.896C79.3387 21.088 79.8373 21.368 80.264 21.736C80.696 22.104 81.0053 22.5467 81.192 23.064L79.352 23.728C79.2773 23.5147 79.1253 23.32 78.896 23.144C78.6667 22.968 78.3867 22.8293 78.056 22.728C77.7253 22.6213 77.3707 22.568 76.992 22.568C76.6133 22.5627 76.2533 22.624 75.912 22.752C75.576 22.8747 75.3013 23.0427 75.088 23.256C74.8747 23.4693 74.768 23.7147 74.768 23.992C74.768 24.3493 74.8667 24.6187 75.064 24.8C75.2667 24.9813 75.536 25.1147 75.872 25.2C76.208 25.28 76.5813 25.3547 76.992 25.424C77.7387 25.5413 78.4293 25.7387 79.064 26.016C79.6987 26.2933 80.208 26.664 80.592 27.128C80.976 27.5867 81.168 28.1493 81.168 28.816C81.168 29.4933 80.976 30.088 80.592 30.6C80.208 31.1067 79.6987 31.5013 79.064 31.784C78.4293 32.0667 77.7387 32.208 76.992 32.208ZM90.1353 32H87.8873L86.0633 28.856L84.9433 30.192V32H82.9913V20H84.9433V27.16L87.5913 24H90.1433L87.3993 27.272L90.1353 32ZM94.4019 32.208C93.6659 32.208 92.9939 32.0187 92.3859 31.64C91.7832 31.2613 91.3005 30.752 90.9379 30.112C90.5805 29.472 90.4019 28.7653 90.4019 27.992C90.4019 27.4107 90.5059 26.8667 90.7139 26.36C90.9219 25.848 91.2072 25.4 91.5699 25.016C91.9379 24.6267 92.3645 24.3227 92.8499 24.104C93.3352 23.8853 93.8525 23.776 94.4019 23.776C95.0259 23.776 95.5965 23.9093 96.1139 24.176C96.6365 24.4373 97.0792 24.7973 97.4419 25.256C97.8045 25.7147 98.0685 26.2373 98.2339 26.824C98.3992 27.4107 98.4365 28.024 98.3459 28.664H92.4979C92.5725 28.9627 92.6952 29.232 92.8659 29.472C93.0365 29.7067 93.2525 29.896 93.5139 30.04C93.7752 30.1787 94.0712 30.2507 94.4019 30.256C94.7432 30.2613 95.0525 30.1813 95.3299 30.016C95.6125 29.8453 95.8472 29.616 96.0339 29.328L98.0259 29.792C97.7005 30.5013 97.2152 31.0827 96.5699 31.536C95.9245 31.984 95.2019 32.208 94.4019 32.208ZM92.4339 27.2H96.3699C96.3112 26.88 96.1859 26.592 95.9939 26.336C95.8072 26.0747 95.5752 25.8667 95.2979 25.712C95.0205 25.5573 94.7219 25.48 94.4019 25.48C94.0819 25.48 93.7859 25.5573 93.5139 25.712C93.2419 25.8613 93.0099 26.0667 92.8179 26.328C92.6312 26.584 92.5032 26.8747 92.4339 27.2ZM103.936 25.952H102.384V32H100.432V25.952H99.2475V24H100.432V21.488H102.384V24H103.936V25.952ZM110.154 29.592L111.914 30.544C111.546 31.0453 111.085 31.448 110.53 31.752C109.976 32.056 109.37 32.208 108.714 32.208C107.978 32.208 107.306 32.0187 106.698 31.64C106.096 31.2613 105.613 30.7547 105.25 30.12C104.893 29.48 104.714 28.7733 104.714 28C104.714 27.4133 104.818 26.8667 105.026 26.36C105.234 25.848 105.52 25.4 105.882 25.016C106.25 24.6267 106.677 24.3227 107.162 24.104C107.648 23.8853 108.165 23.776 108.714 23.776C109.37 23.776 109.976 23.928 110.53 24.232C111.085 24.536 111.546 24.944 111.914 25.456L110.154 26.4C109.968 26.1867 109.746 26.0213 109.49 25.904C109.24 25.7867 108.981 25.728 108.714 25.728C108.33 25.728 107.984 25.8347 107.674 26.048C107.365 26.256 107.12 26.5333 106.938 26.88C106.757 27.2213 106.666 27.5947 106.666 28C106.666 28.4 106.757 28.7733 106.938 29.12C107.12 29.4613 107.365 29.736 107.674 29.944C107.984 30.152 108.33 30.256 108.714 30.256C108.992 30.256 109.256 30.1973 109.506 30.08C109.757 29.9573 109.973 29.7947 110.154 29.592ZM120.429 26.944V32H118.477V27.456C118.477 27.1413 118.399 26.856 118.245 26.6C118.09 26.3387 117.882 26.1333 117.621 25.984C117.365 25.8293 117.079 25.752 116.765 25.752C116.45 25.752 116.162 25.8293 115.901 25.984C115.645 26.1333 115.439 26.3387 115.285 26.6C115.135 26.856 115.061 27.1413 115.061 27.456V32H113.109L113.101 20H115.053L115.061 24.712C115.333 24.424 115.658 24.1973 116.037 24.032C116.415 23.8613 116.823 23.776 117.261 23.776C117.842 23.776 118.373 23.92 118.853 24.208C119.333 24.4907 119.714 24.872 119.997 25.352C120.285 25.8267 120.429 26.3573 120.429 26.944Z" fill="white"/>
<path d="M7.06765 23.5685L24.401 42.6113C25.2677 43.5646 26.7648 43.5646 27.6315 42.6113L44.9648 23.5663C45.643 22.821 45.721 21.7051 45.1533 20.8731L37.4898 9.61947C37.2915 9.32916 37.0256 9.09145 36.7149 8.92687C36.4043 8.76229 36.0582 8.67578 35.7067 8.6748H16.367C16.0154 8.67578 15.6694 8.76229 15.3587 8.92687C15.048 9.09145 14.7821 9.32916 14.5838 9.61947L6.91382 20.8688C6.34398 21.703 6.42198 22.821 7.10232 23.5685H7.06765Z" stroke="white" stroke-width="3" stroke-linecap="round" stroke-linejoin="round"/>
</svg>
