<svg width="99" height="24" viewBox="0 0 99 24" fill="none" xmlns="http://www.w3.org/2000/svg">
<g clip-path="url(#clip0_101_1465)">
<path fill-rule="evenodd" clip-rule="evenodd" d="M13.7478 3.29789C14.473 4.12758 14.392 5.39129 13.5668 6.12045L9.17555 10.0006L13.271 11.1039C13.9796 11.2948 14.5262 11.8623 14.6931 12.5806C14.8601 13.2988 14.6203 14.0511 14.0693 14.538L6.88619 20.8851C6.06098 21.6142 4.80411 21.5327 4.07889 20.703C3.35368 19.8733 3.43474 18.6096 4.25994 17.8805L8.65114 14.0004L4.55571 12.897C3.84711 12.7061 3.30053 12.1386 3.13357 11.4204C2.96661 10.7021 3.20639 9.9498 3.75743 9.46289L10.9405 3.11585C11.7657 2.38669 13.0226 2.46819 13.7478 3.29789Z" fill="#205BF1"/>
</g>
<path d="M38.4553 21.252L36.856 19.404C36.1319 19.9 35.3522 20.288 34.5167 20.568C33.6812 20.848 32.8219 20.988 31.9387 20.988C30.8009 20.988 29.7665 20.764 28.8356 20.316C27.9047 19.86 27.1169 19.236 26.4725 18.444C25.828 17.644 25.3665 16.716 25.088 15.66C24.8095 14.604 24.7538 13.476 24.9209 12.276C25.088 11.076 25.458 9.95205 26.0309 8.90405C26.6037 7.84805 27.3238 6.92005 28.1911 6.12005C29.0584 5.32005 30.0211 4.69605 31.0794 4.24805C32.1376 3.79205 33.2357 3.56405 34.3735 3.56405C35.5113 3.56405 36.5417 3.79205 37.4647 4.24805C38.3956 4.69605 39.1833 5.32005 39.8278 6.12005C40.4723 6.92005 40.9338 7.84805 41.2123 8.90405C41.4908 9.95205 41.5465 11.076 41.3794 12.276C41.2521 13.212 40.9935 14.104 40.6036 14.952C40.2217 15.792 39.7443 16.568 39.1714 17.28L40.8065 19.188L38.4553 21.252ZM32.3445 18.06C32.806 18.06 33.2675 17.992 33.729 17.856C34.1984 17.712 34.636 17.512 35.0418 17.256L33.7409 15.732L36.0921 13.656L37.3095 15.096C37.6198 14.68 37.8744 14.232 38.0733 13.752C38.2723 13.272 38.4036 12.78 38.4672 12.276C38.5786 11.476 38.5428 10.728 38.3598 10.032C38.1847 9.33605 37.8903 8.72405 37.4766 8.19605C37.0628 7.66005 36.5536 7.24405 35.9489 6.94805C35.3521 6.64405 34.6917 6.49205 33.9677 6.49205C33.2277 6.49205 32.5156 6.64405 31.8313 6.94805C31.147 7.25205 30.5224 7.67205 29.9575 8.20805C29.4005 8.73605 28.9311 9.34805 28.5492 10.044C28.1752 10.74 27.9365 11.484 27.8331 12.276C27.7217 13.068 27.7535 13.816 27.9285 14.52C28.1115 15.216 28.4099 15.832 28.8237 16.368C29.2374 16.896 29.7427 17.312 30.3394 17.616C30.9441 17.912 31.6125 18.06 32.3445 18.06Z" fill="url(#paint0_linear_101_1465)"/>
<path d="M42.7521 16.308L43.8024 8.74805H46.7145L45.7597 15.54C45.704 16.012 45.7637 16.444 45.9387 16.836C46.1138 17.22 46.3764 17.528 46.7265 17.76C47.0845 17.984 47.4943 18.096 47.9558 18.096C48.4252 18.096 48.8668 17.984 49.2806 17.76C49.7023 17.528 50.0524 17.22 50.3309 16.836C50.6173 16.444 50.7923 16.012 50.856 15.54L51.8108 8.74805H54.723L53.064 20.748H50.1518L50.2831 19.656C49.8137 20.088 49.2766 20.432 48.6719 20.688C48.0751 20.936 47.4545 21.06 46.81 21.06C45.9427 21.06 45.1789 20.848 44.5185 20.424C43.866 19.992 43.3767 19.42 43.0505 18.708C42.7322 17.988 42.6327 17.188 42.7521 16.308Z" fill="url(#paint1_linear_101_1465)"/>
<path d="M57.124 8.74805H60.0361L58.3652 20.748H55.4531L57.124 8.74805ZM58.8187 7.20005C58.3891 7.20005 58.0469 7.06005 57.7923 6.78005C57.5377 6.49205 57.4422 6.13205 57.5059 5.70005C57.5695 5.27605 57.7645 4.92005 58.0907 4.63205C58.4249 4.34405 58.8068 4.20005 59.2365 4.20005C59.6502 4.20005 59.9804 4.34405 60.2271 4.63205C60.4817 4.92005 60.5812 5.27605 60.5255 5.70005C60.4618 6.13205 60.2669 6.49205 59.9406 6.78005C59.6224 7.06005 59.2484 7.20005 58.8187 7.20005Z" fill="url(#paint2_linear_101_1465)"/>
<path d="M68.8673 17.136L71.2782 18.564C70.6258 19.316 69.854 19.92 68.9628 20.376C68.0717 20.832 67.1368 21.06 66.1581 21.06C65.06 21.06 64.0973 20.776 63.2698 20.208C62.4502 19.64 61.8376 18.88 61.4318 17.928C61.0339 16.968 60.9146 15.908 61.0737 14.748C61.1931 13.868 61.4596 13.048 61.8734 12.288C62.2951 11.52 62.8202 10.848 63.4488 10.272C64.0774 9.68805 64.7736 9.23205 65.5374 8.90405C66.3093 8.57605 67.1049 8.41205 67.9245 8.41205C68.9031 8.41205 69.7744 8.64005 70.5382 9.09605C71.31 9.55205 71.9148 10.164 72.3524 10.932L69.5238 12.348C69.2851 12.028 68.9907 11.78 68.6406 11.604C68.2905 11.428 67.9165 11.34 67.5187 11.34C66.9378 11.34 66.3968 11.5 65.8955 11.82C65.3942 12.132 64.9725 12.548 64.6304 13.068C64.2882 13.58 64.0734 14.14 63.9859 14.748C63.9063 15.348 63.962 15.908 64.153 16.428C64.3519 16.94 64.6582 17.352 65.072 17.664C65.4937 17.976 65.991 18.132 66.5639 18.132C66.9776 18.132 67.3834 18.044 67.7812 17.868C68.187 17.684 68.5491 17.44 68.8673 17.136Z" fill="url(#paint3_linear_101_1465)"/>
<path d="M83.4195 20.748H80.0658L78.001 16.032L76.0437 18.036L75.6737 20.748H72.7615L75.2679 2.74805H78.18L76.6762 13.488L81.2951 8.74805H85.1024L80.3284 13.656L83.4195 20.748Z" fill="url(#paint4_linear_101_1465)"/>
<path d="M86.8218 8.74805H89.7339L88.063 20.748H85.1509L86.8218 8.74805ZM88.5166 7.20005C88.0869 7.20005 87.7448 7.06005 87.4902 6.78005C87.2355 6.49205 87.1401 6.13205 87.2037 5.70005C87.2674 5.27605 87.4623 4.92005 87.7885 4.63205C88.1227 4.34405 88.5046 4.20005 88.9343 4.20005C89.348 4.20005 89.6783 4.34405 89.9249 4.63205C90.1795 4.92005 90.279 5.27605 90.2233 5.70005C90.1596 6.13205 89.9647 6.49205 89.6385 6.78005C89.3202 7.06005 88.9462 7.20005 88.5166 7.20005Z" fill="url(#paint5_linear_101_1465)"/>
<path d="M98.5942 11.676H96.2788L95.0137 20.748H92.1016L93.3667 11.676H91.6003L92.0061 8.74805H93.7725L94.2976 4.98005H97.2098L96.6846 8.74805H99L98.5942 11.676Z" fill="url(#paint6_linear_101_1465)"/>
<defs>
<linearGradient id="paint0_linear_101_1465" x1="23.9542" y1="14.748" x2="99.543" y2="14.748" gradientUnits="userSpaceOnUse">
<stop stop-color="#205BF1"/>
<stop offset="0.708333" stop-color="white"/>
</linearGradient>
<linearGradient id="paint1_linear_101_1465" x1="23.9542" y1="14.748" x2="99.543" y2="14.748" gradientUnits="userSpaceOnUse">
<stop stop-color="#205BF1"/>
<stop offset="0.708333" stop-color="white"/>
</linearGradient>
<linearGradient id="paint2_linear_101_1465" x1="23.9542" y1="14.748" x2="99.543" y2="14.748" gradientUnits="userSpaceOnUse">
<stop stop-color="#205BF1"/>
<stop offset="0.708333" stop-color="white"/>
</linearGradient>
<linearGradient id="paint3_linear_101_1465" x1="23.9542" y1="14.748" x2="99.543" y2="14.748" gradientUnits="userSpaceOnUse">
<stop stop-color="#205BF1"/>
<stop offset="0.708333" stop-color="white"/>
</linearGradient>
<linearGradient id="paint4_linear_101_1465" x1="23.9542" y1="14.748" x2="99.543" y2="14.748" gradientUnits="userSpaceOnUse">
<stop stop-color="#205BF1"/>
<stop offset="0.708333" stop-color="white"/>
</linearGradient>
<linearGradient id="paint5_linear_101_1465" x1="23.9542" y1="14.748" x2="99.543" y2="14.748" gradientUnits="userSpaceOnUse">
<stop stop-color="#205BF1"/>
<stop offset="0.708333" stop-color="white"/>
</linearGradient>
<linearGradient id="paint6_linear_101_1465" x1="23.9542" y1="14.748" x2="99.543" y2="14.748" gradientUnits="userSpaceOnUse">
<stop stop-color="#205BF1"/>
<stop offset="0.708333" stop-color="white"/>
</linearGradient>
<clipPath id="clip0_101_1465">
<rect width="16.6769" height="22.4248" fill="white" transform="translate(0.574951 0.788086)"/>
</clipPath>
</defs>
</svg>
